<?xml version="1.0" encoding="UTF-8" standalone="no"?>
<svg
   width="675"
   height="300"
   viewBox="0 0 675 300"
   fill="none"
   version="1.1"
   id="svg25"
   sodipodi:docname="logo_icurti.svg"
   inkscape:version="1.2.1 (9c6d41e410, 2022-07-14)"
   xmlns:inkscape="http://www.inkscape.org/namespaces/inkscape"
   xmlns:sodipodi="http://sodipodi.sourceforge.net/DTD/sodipodi-0.dtd"
   xmlns="http://www.w3.org/2000/svg"
   xmlns:svg="http://www.w3.org/2000/svg">
  <defs
     id="defs29" />
  <sodipodi:namedview
     id="namedview27"
     pagecolor="#ffffff"
     bordercolor="#000000"
     borderopacity="0.25"
     inkscape:showpageshadow="2"
     inkscape:pageopacity="0.0"
     inkscape:pagecheckerboard="0"
     inkscape:deskcolor="#d1d1d1"
     showgrid="false"
     inkscape:zoom="1.4578185"
     inkscape:cx="336.11866"
     inkscape:cy="130.33173"
     inkscape:window-width="2560"
     inkscape:window-height="1017"
     inkscape:window-x="-8"
     inkscape:window-y="-8"
     inkscape:window-maximized="1"
     inkscape:current-layer="svg25" />
  <g
     id="g281"
     transform="matrix(8.8141728,0,0,8.8141728,6.9683977,25.610117)">
    <g
       id="Group">
      <g
         id="Group_2">
        <path
           id="Vector"
           fill-rule="evenodd"
           clip-rule="evenodd"
           d="m 69.4099,1.4181 c 0.7109,-0.504918 1.5054,-0.677645 2.3829,-0.51781 0.884,0.1243 1.5888,0.548 2.1153,1.27095 0.5259,0.72294 0.7261,1.52139 0.6001,2.39385 C 74.426,5.0621 74.2329,5.50515 73.9286,5.89369 73.6249,6.28205 73.3205,6.6704 73.0161,7.05894 72.7124,7.4473 72.4546,7.83363 72.2436,8.21923 72.0316,8.6039 71.9915,9.01693 72.1211,9.45703 71.776,9.20107 71.358,8.85581 70.8672,8.42049 70.3764,7.9861 69.9125,7.50126 69.4748,6.9654 69.0371,6.43028 68.6738,5.86551 68.3846,5.27221 68.0957,4.67872 68.0002,4.07951 68.1007,3.47607 68.2413,2.62441 68.6782,1.93812 69.4099,1.4181 Z"
           fill="#e72227" />
      </g>
      <g
         id="Group_3">
        <path
           id="Vector_2"
           fill-rule="evenodd"
           clip-rule="evenodd"
           d="m 69.7656,2.13388 c 0.1659,-0.11804 0.3524,-0.15836 0.557,-0.12098 0.2068,0.02965 0.3721,0.12817 0.4952,0.29721 0.123,0.16904 0.1696,0.35594 0.1405,0.56034 -0.0195,0.11583 -0.0648,0.21932 -0.136,0.31065 -0.0707,0.0906 -0.1421,0.18138 -0.2135,0.27198 -0.0707,0.09133 -0.1311,0.1812 -0.1806,0.27179 C 70.3788,3.81492 70.3693,3.91122 70.3998,4.01416 70.3189,3.95431 70.2214,3.87311 70.1064,3.77165 69.9919,3.67018 69.8827,3.55657 69.7809,3.43153 69.6789,3.30632 69.5937,3.17392 69.5259,3.03508 69.4582,2.89623 69.4364,2.75683 69.4597,2.61578 69.4925,2.41654 69.5945,2.25541 69.7656,2.13388 Z"
           fill="#fffffa" />
      </g>
      <g
         id="Group_4">
        <path
           id="Vector_3"
           fill-rule="evenodd"
           clip-rule="evenodd"
           d="m 0.455322,5.06941 c 0,0.83729 0.307968,1.51346 0.924838,2.03642 0.61594,0.51855 1.425,0.7804 2.43205,0.7804 0.97741,0 1.78201,-0.27124 2.40316,-0.8093 C 6.84156,6.53978 7.15475,5.86932 7.15475,5.06941 7.15475,4.25163 6.85107,3.58558 6.24446,3.08122 5.63709,2.57206 4.82821,2.32016 3.81221,2.32016 2.80516,2.32016 1.9961,2.57206 1.38016,3.08122 0.76329,3.58558 0.455322,4.25163 0.455322,5.06941 Z"
           fill="#ffffff" />
      </g>
      <g
         id="face">
        <path
           id="Vector_4"
           fill-rule="evenodd"
           clip-rule="evenodd"
           d="m 0.940186,5.54202 c 0,0.58115 0.214194,1.05016 0.642224,1.41329 C 2.01062,7.31568 2.57212,7.4978 3.2712,7.4978 3.95071,7.4978 4.50923,7.30924 4.94023,6.93598 5.37497,6.56272 5.59271,6.09647 5.59271,5.54202 5.59271,4.97375 5.38149,4.51119 4.96074,4.16095 4.53905,3.80702 3.9768,3.63209 3.2712,3.63209 2.57212,3.63209 2.01062,3.80702 1.58241,4.16095 1.15438,4.51119 0.940186,4.97375 0.940186,5.54202 Z"
           fill="#0047ab" />
      </g>
      <g
         id="Group_5">
        <path
           id="Vector_5"
           fill-rule="evenodd"
           clip-rule="evenodd"
           d="M 3.82742,6.77423 C 3.5064,6.85415 3.18968,6.86133 2.875,6.79725 2.56181,6.73243 2.26913,6.6015 1.99751,6.4052 L 1.86646,5.89016 C 2.23203,6.08737 2.56554,6.21093 2.86773,6.25991 3.16991,6.30889 3.47733,6.29509 3.78958,6.21756 3.9499,6.17797 4.10128,6.12328 4.24258,6.0557 4.35611,6.00101 4.45734,5.93987 4.54626,5.87285 c -0.02032,0.01731 0.02182,-0.01639 0,0 l 0.12304,0.4749 c -0.01827,0.01933 0.02107,-0.01879 0,0 C 4.58057,6.42895 4.46983,6.50519 4.33729,6.57645 4.17342,6.66484 4.00378,6.7304 3.82742,6.77423 Z"
           fill="#ffffff" />
      </g>
      <g
         id="Group_6">
        <path
           id="Vector_6"
           fill-rule="evenodd"
           clip-rule="evenodd"
           d="m 53.9334,13.9757 c -0.4595,-0.3539 -1.1258,-0.5307 -1.9887,-0.5307 -1.1258,0 -2.0667,0.5035 -2.8226,1.5047 -0.7565,1.007 -1.1316,2.3737 -1.1316,4.1001 v 7.9448 H 44.1812 V 10.3958 h 3.8093 v 3.4195 h 0.0669 c 0.3701,-1.1674 0.9409,-2.0743 1.7143,-2.7334 0.7726,-0.6522 1.6297,-0.9789 2.5822,-0.9789 0.6888,0 1.2154,0.105 1.5795,0.3101 z"
           fill="#ffffff" />
      </g>
      <g
         id="Group_7">
        <path
           id="Vector_7"
           fill-rule="evenodd"
           clip-rule="evenodd"
           d="M 42.3193,26.9953 H 38.51 V 24.367 h -0.0669 c -1.1033,2.0141 -2.8232,3.0153 -5.1535,3.0153 -3.9709,0 -5.9539,-2.3515 -5.9539,-7.065 v -9.9207 h 3.8086 v 9.5329 c 0,2.9824 1.1651,4.4706 3.4954,4.4706 1.1258,0 2.0499,-0.4093 2.778,-1.2278 0.7282,-0.8252 1.0923,-1.8984 1.0923,-3.2262 v -9.5495 h 3.8093 z"
           fill="#ffffff" />
      </g>
      <g
         id="Group_8">
        <path
           id="Vector_8"
           fill-rule="evenodd"
           clip-rule="evenodd"
           d="m 25.4737,26.0213 c -1.7702,0.9071 -3.9775,1.361 -6.6099,1.361 -3.4168,0 -6.1506,-1.0625 -8.2063,-3.1923 -2.05567,-2.1305 -3.08621,-4.9243 -3.08621,-8.3827 0,-3.7125 1.15935,-6.71698 3.47281,-9.00716 2.3137,-2.29608 5.2374,-3.44199 8.7721,-3.44199 2.2742,0 4.1617,0.32077 5.6575,0.95735 v 3.82888 c -1.5853,-0.92937 -3.333,-1.39469 -5.2491,-1.39469 -2.5485,0 -4.6152,0.80286 -6.1947,2.41263 -1.5796,1.61048 -2.3754,3.76258 -2.3754,6.45148 0,2.5614 0.7399,4.6035 2.218,6.119 1.4791,1.5222 3.4175,2.2795 5.8257,2.2795 2.2182,0 4.1451,-0.52 5.7755,-1.5543 z"
           fill="#ffffff" />
      </g>
      <g
         id="Group_9">
        <path
           id="Vector_9"
           fill-rule="evenodd"
           clip-rule="evenodd"
           d="m 72.0979,13.5896 c 0,-0.6654 -0.1623,-1.2171 -0.3683,-1.6602 -0.2069,-0.4423 -0.4778,-0.7962 -0.8121,-1.0617 -0.335,-0.2661 -0.7238,-0.4597 -1.1666,-0.5812 -0.4427,-0.1215 -0.9299,-0.1827 -1.4613,-0.1827 v 16.8476 h 3.8083 z"
           fill="#ffffff" />
      </g>
      <g
         id="Group_10">
        <path
           id="Vector_10"
           fill-rule="evenodd"
           clip-rule="evenodd"
           d="m 66.4272,26.8177 c -0.7397,0.3654 -1.7199,0.548 -2.9354,0.548 -3.2601,0 -4.8898,-1.5436 -4.8898,-4.6367 V 13.9765 H 55.7954 V 10.2139 H 58.602 V 6.55612 l 3.8091,-1.07318 v 4.73096 h 4.0161 v 3.7626 h -4.0161 v 7.6679 c 0,0.9841 0.1777,1.6897 0.5375,2.1083 0.362,0.4215 0.9634,0.6308 1.8088,0.6308 0.6445,0 1.1995,-0.1826 1.6698,-0.5482 z"
           fill="#ffffff" />
      </g>
      <g
         id="Group_11">
        <path
           id="Vector_11"
           fill-rule="evenodd"
           clip-rule="evenodd"
           d="m 1.90015,13.5465 c 0,-0.6653 0.16237,-1.217 0.36911,-1.6593 C 2.476,11.4439 2.74631,11.09 3.08131,10.8247 3.41613,10.5593 3.80425,10.3651 4.24775,10.2435 4.6905,10.122 5.17781,10.0609 5.7093,10.0609 V 26.9084 H 1.90015 Z"
           fill="#ffffff" />
      </g>
    </g>
  </g>
</svg>
